<?xml version="1.0" encoding="utf-8"?>
<!-- Generator: Adobe Illustrator 19.2.1, SVG Export Plug-In . SVG Version: 6.00 Build 0)  -->
<svg version="1.1" id="layer" xmlns="http://www.w3.org/2000/svg" xmlns:xlink="http://www.w3.org/1999/xlink" x="0px" y="0px"
	 viewBox="0 0 652 652" style="enable-background:new 0 0 652 652;" xml:space="preserve">
<style type="text/css">
	.st0{fill-rule:evenodd;clip-rule:evenodd;fill:#FFFFFF;}
	.st1{fill:#FFFFFF;}
	.st2{fill:#FFFFFF;}
	.st3{fill:#FFFFFF;}
	.st4{fill:#FFFFFF;}
</style>
<path class="st0" d="M54.1,255.5C64.8,222,86.8,201.3,97.4,193c2.7-6.2,5.4-12.4,4.5-12.8h-0.2c-1.6,0.3-7.7,9.8-12.2,15.9
	c1.5-6.4,3.3-13.7,2.4-14h-0.1c-1,0-4.6,8.1-7.6,14.3c0-7.6,1.1-21.9-0.3-22.1c-1.3-0.2-3.8,12.2-5.8,19.9c-1-6.7-2-14.6-3-14.6
	c-1,0-1.4,8.7-1.8,15.6c-2.9-7.3-6.9-20.3-8.2-20c-1.3,0.3,1,13.5,1.8,21.2c-3.3-5.8-7.2-13.1-8.3-13.1h-0.1
	c-1,0.4,1.7,8.2,3.8,14.7c-5.2-5.7-13-15.6-14.4-15.3h-0.1c-1.1,0.9,6.2,12.8,9.7,19.6c-5.2-4.2-11.7-9.7-13-9.6
	c-0.1,0-0.1,0-0.2,0.1c-0.7,0.7,4.4,6.8,8.7,12.1c-6.6-3.3-16.4-9-18.3-8.9c-0.2,0-0.3,0-0.3,0.1c-0.8,1,10.6,9.7,16.4,14.8
	c-6.1-2-14-4.7-15.8-4.5c-0.2,0-0.3,0.1-0.3,0.2c-0.4,0.9,6.5,4.7,12.4,8c-6.5-0.7-15.6-2.1-18.9-2c-0.8,0-1.2,0.2-1.2,0.4
	c-0.4,1.4,13.5,5.3,20.7,8c-3,0.2-6.3,0.3-9.4,0.5c-4.3,0.3-7.6,0.6-7.7,1.2c0,1,7.9,2.1,14.7,3.1c-7.7,2.1-19.4,4.5-19.2,5.7
	c0.2,1.4,14.3,0.2,22.1,0.1c-6.5,2.9-15.7,6.7-15.3,7.7c0.3,0.9,8.4-1,15.1-2.4c-6.4,4.6-16.5,11.1-15.9,12.2
	c0.7,1.2,12.9-4.7,20.2-7.5c-5,5.1-12,11.6-11.3,12.4s7.8-4.2,13.7-8c-4.3,6.7-11.6,16.5-10.5,17.4C45.3,264,49.6,259.8,54.1,255.5"
	/>
<path d="M226.7,195.8h26.4v26h-26.4V195.8z M295.7,218.8h8.6v-8.5h-8.6V218.8z"/>
<path class="st1" d="M220.2,254.7h33.2v34.2h-33.2V254.7z M262.8,242.2h13v-12.8h-13V242.2z M318.1,258.1h10.2v-10h-10.2V258.1z"/>
<path class="st2" d="M293.7,226.5h18.1v17.8h-18.1V226.5z M263.6,198.1h9.7v-9.6h-9.7V198.1z"/>
<path class="st3" d="M271.3,206.7h13.8v13.6h-13.8V206.7z M277,281.9h30.1v-29.6H277V281.9z M238.8,246.3h13v-12.8h-13V246.3z"/>
<path class="st4" d="M152.1,243.7c0.7-2.9,1.6-5.4,2.3-6.9c20.2,5.1,46.8,8.8,80.9,7.6C235.2,244.4,195.3,250.3,152.1,243.7
	 M246.9,373.5c-12.3,1.7-24.8,1.3-38.3,1.3c-55.3,0-104.7-16.4-127.1-39.3c-11-39.6-3.1-76.6,11.6-102.5
	c-6.9-3.3-12.2-7.4-17.5-11.4c-25.8,36.5-30.9,78.2-19.4,115.9c21.7,23.7,73.1,41.6,129.7,41.6C208,379.1,228.3,377.9,246.9,373.5
	 M80.7,215.6c15.3,12.2,34.1,19.9,53.1,24.5c-2.8,6.9-5,14.1-6.4,21.8c-6.5,34.7-4.6,69.9,5.8,90.9c-4.3-22.4-3.9-52.1,1.8-81.4
	c9-45.8,35.1-76.2,58.9-91c-18.4,3.8-42.2,23.2-56.3,51.5c-18.6-6.6-29-13.9-32.7-16.8c20.7-26.5,54.4-48.5,91.5-52.7
	C152.9,161.1,107.9,180.9,80.7,215.6 M97.6,371.4c-13.1-3.2-25.9-11.3-35.7-18.5c23.9,51.3,76.2,82.8,128.2,83
	c4.3,0,11,0.3,15.2-0.1C165.6,432.8,123.6,411.7,97.6,371.4 M316.4,353.9c0,0-17.6,50.4-70.3,73.3c0,0,64.4-20,86.1-87.4
	C332.2,339.7,323,349.3,316.4,353.9"/>
<path class="st4" d="M438.9,433.6c0,16.4-13.8,23.5-35.7,23.5h-23.7V337.2h22.8c18.4,0,28.4,7.2,28.4,20v0.5
	c0,14.4-12.1,20.6-31.3,20.6h-9.9v31.9h16.9c20.9,0,32.4,8.2,32.4,22.8V433.6z M262.6,392.2l77.8-84.7v164.3L262.6,392.2z
	 M457.2,390.4c-0.1,0-0.1-0.1-0.2-0.1c8.3-9.7,11.8-21.5,11.8-32.5v-0.5c0-25.7-18.7-51.6-60.6-51.6H296.3l-63.2,69v-69h-39.4v183.2
	H233v-73.4l72,73.4h106.1c17.7,0,31.7-3.3,43-10.4c15.7-9.7,24.8-25.9,24.8-44.7v-0.6C479,415.4,471.2,400.3,457.2,390.4"/>
<path class="st4" d="M625.4,488.7L579.3,403c20.8-9.8,28.9-28.5,28.9-45.3v-0.5c0-25.7-18.7-51.6-60.6-51.6h-68.8v183.1h39.2V337.2
	h23.7c18.4,0,28.4,7.2,28.4,20v0.5c0,14.4-12.1,20.6-31.3,20.6H528v31.9h13.9l42.8,78.5H625.4z"/>
<path class="st4" d="M614.8,312.2c1.7,0,2.3-0.9,2.3-2.2s-0.7-2.2-2.3-2.2h-2.3v4.5H614.8z M609.7,305.7h5.7c3.3,0,4.8,2,4.8,4.3
	c0,1.8-0.9,3.3-2.9,4l4.3,5.9h-3.2l-3.9-5.7h-1.8v5.7h-2.9V305.7z M625,312.9c0-5.6-4.6-10.1-10.3-10.1c-5.7,0-10.3,4.5-10.3,10.1
	c0,5.6,4.6,10.1,10.3,10.1C620.3,323,625,318.4,625,312.9 M602.9,312.9c0-6.4,5.3-11.6,11.7-11.6c6.5,0,11.8,5.1,11.8,11.6
	c0,6.4-5.3,11.6-11.8,11.6C608.2,324.4,602.9,319.3,602.9,312.9"/>
</svg>
